<?xml version="1.0" standalone="no"?>
<!DOCTYPE svg PUBLIC "-//W3C//DTD SVG 20010904//EN"
 "http://www.w3.org/TR/2001/REC-SVG-20010904/DTD/svg10.dtd">
<svg version="1.0" xmlns="http://www.w3.org/2000/svg"
 width="612.000000pt" height="408.000000pt" viewBox="0 0 612.000000 408.000000"
 preserveAspectRatio="xMidYMid meet">

<g transform="translate(0.000000,408.000000) scale(0.100000,-0.100000)"
fill="#000000" stroke="none">
<path d="M1995 3020 c-3 -6 1 -13 9 -16 9 -3 13 -10 10 -15 -3 -5 0 -9 5 -9 6
0 11 5 11 11 0 6 9 8 21 4 21 -7 95 11 114 27 5 4 -30 8 -77 8 -48 0 -90 -5
-93 -10z"/>
<path d="M3160 3007 c0 -9 10 -18 23 -20 l22 -4 -22 -2 c-22 -1 -22 -1 -6 -53
8 -29 18 -55 22 -58 3 -3 6 -12 6 -20 0 -8 10 -15 22 -16 38 -2 53 -13 53 -38
0 -15 -7 -25 -20 -29 -25 -6 -26 -24 -2 -30 14 -4 14 -5 -3 -6 -16 -1 -17 -3
-5 -11 8 -5 12 -12 8 -15 -3 -4 -162 -6 -352 -5 -304 0 -346 -1 -346 -15 0 -8
-4 -15 -10 -15 -5 0 -10 7 -10 15 0 13 -4 13 -27 -2 -27 -17 -27 -17 -14 0 14
17 11 18 -40 16 -30 -1 -58 -4 -64 -7 -5 -3 -30 -7 -55 -8 l-45 -3 23 19 c12
10 22 24 22 32 0 8 3 9 8 3 4 -6 21 -10 39 -11 31 -1 31 0 15 22 -12 15 -19
18 -24 10 -4 -6 -8 -8 -8 -4 0 4 -16 0 -37 -8 -43 -18 -88 -12 -123 17 -21 18
-25 30 -26 80 -1 66 -10 86 -19 43 -4 -16 -10 -42 -15 -59 -11 -41 -9 -67 6
-61 7 3 10 -2 7 -14 -3 -10 0 -21 6 -24 7 -5 9 0 5 11 -4 14 -4 15 4 4 14 -19
3 -49 -20 -57 -22 -7 -64 26 -78 61 -6 14 -9 0 -9 -43 -1 -53 -5 -67 -26 -87
-24 -25 -25 -25 -222 -25 l-197 0 -38 -37 -38 -37 -38 37 c-21 20 -41 37 -45
37 -9 0 -9 -192 1 -205 4 -6 102 -10 257 -10 224 0 253 -2 276 -18 49 -33 50
-44 47 -485 l-3 -412 -33 -32 -32 -33 -260 -3 -260 -3 0 -50 0 -49 1600 0
1600 0 0 65 0 65 -235 0 c-255 0 -277 4 -295 53 -14 42 -14 828 1 860 19 43
46 47 294 47 l235 0 0 104 0 103 -77 7 c-43 3 -115 18 -160 32 l-83 26 -74
-32 c-90 -40 -112 -36 -102 18 22 120 20 144 -17 205 -20 32 -38 77 -42 100
-4 23 -9 50 -12 60 -5 18 -6 18 -19 -1 -19 -28 -20 -137 0 -190 8 -24 13 -57
10 -75 -5 -29 -4 -30 9 -15 19 24 28 12 16 -21 -10 -28 -49 -41 -49 -15 0 9
-11 14 -30 14 -17 0 -30 5 -31 13 0 6 -6 -4 -13 -22 -9 -25 -15 -31 -20 -22
-5 8 -3 17 5 22 11 6 11 11 1 21 -9 9 -12 9 -12 -1 0 -10 -3 -11 -13 -2 -8 6
-16 8 -19 5 -3 -3 -8 6 -11 19 -4 13 -23 32 -46 45 -48 27 -68 29 -25 3 106
-64 149 -215 98 -338 -21 -49 -99 -119 -152 -137 -123 -42 -265 14 -324 128
-34 64 -31 174 5 243 43 82 119 130 226 143 36 4 53 8 38 9 -16 0 -38 6 -49
12 -12 7 -18 7 -14 1 4 -6 -15 -13 -46 -17 -29 -4 -64 -14 -77 -22 -23 -15
-26 -14 -52 18 -16 19 -29 37 -29 41 0 3 22 29 49 57 27 27 51 60 54 71 5 20
4 19 -20 -4 -55 -55 -131 -57 -202 -6 -41 30 -61 37 -61 22 0 -4 -16 -6 -36
-4 -25 3 -32 7 -23 13 10 6 6 9 -13 9 -16 0 -28 -5 -28 -11 0 -8 -5 -8 -15 1
-12 10 -15 10 -15 -3z m93 -37 c-3 -11 -10 -20 -15 -20 -5 0 -6 5 -2 11 3 6 0
15 -7 20 -11 7 -9 9 8 9 16 0 20 -5 16 -20z m2 -100 c-3 -5 -12 -10 -18 -10
-7 0 -6 4 3 10 19 12 23 12 15 0z m-865 -126 c0 -8 -19 -13 -24 -6 -3 5 1 9 9
9 8 0 15 -2 15 -3z m-97 -101 c-7 -2 -19 -2 -25 0 -7 3 -2 5 12 5 14 0 19 -2
13 -5z m937 -7 c0 -2 -7 -7 -16 -10 -8 -3 -12 -2 -9 4 6 10 25 14 25 6z m-640
-21 c-11 -13 -10 -14 5 -9 13 5 16 4 11 -4 -7 -11 7 -17 29 -12 6 1 7 -1 3 -5
-4 -4 3 -25 14 -46 19 -36 20 -53 16 -199 -5 -175 -11 -194 -71 -230 -28 -17
-51 -20 -173 -20 -130 0 -144 2 -175 23 -50 34 -59 61 -65 214 -7 154 2 210
42 250 14 14 21 29 17 36 -4 7 0 6 10 -2 9 -7 17 -10 17 -5 0 5 66 8 148 8 81
-1 154 2 162 7 22 12 24 11 10 -6z m656 -47 l34 -38 0 -179 c0 -166 -1 -180
-21 -205 -39 -49 -66 -56 -223 -56 -142 0 -145 0 -177 27 -51 43 -57 70 -53
246 2 138 5 162 23 191 32 51 50 56 224 53 l159 -2 34 -37z m874 -27 c0 -11
-4 -22 -9 -25 -12 -8 -34 21 -26 34 11 17 35 11 35 -9z m278 -3 c3 -15 -11
-17 -122 -20 -98 -2 -127 0 -131 10 -11 28 9 33 128 30 105 -3 122 -5 125 -20z
m-137 -54 c18 -22 -3 -34 -63 -34 -49 0 -62 8 -52 34 8 22 96 22 115 0z m-616
-267 c31 -16 35 -27 35 -113 0 -102 -9 -112 -100 -114 -36 -1 -73 -1 -82 -1
-31 2 -46 30 -53 100 -8 81 6 121 45 132 35 11 131 8 155 -4z m323 -28 c8 -15
12 -51 10 -97 -4 -95 -13 -102 -124 -102 -74 0 -84 2 -98 22 -18 25 -22 163
-6 188 6 10 33 17 87 20 92 6 114 1 131 -31z m-1354 -269 c52 -46 60 -82 53
-248 -9 -221 -29 -242 -235 -242 -140 0 -176 10 -215 62 -24 31 -26 42 -31
173 -3 77 -1 156 4 176 12 43 45 87 74 99 11 5 87 9 168 9 l147 1 35 -30z
m596 17 c13 -7 35 -28 47 -46 22 -32 23 -44 23 -192 0 -96 -4 -160 -10 -164
-6 -4 -8 -10 -5 -15 10 -16 -63 -79 -100 -86 -19 -3 -88 -5 -154 -3 -111 4
-121 6 -146 29 -50 47 -55 67 -55 235 0 174 7 201 63 235 28 17 51 20 172 20
92 0 148 -5 165 -13z m454 -13 c12 -11 16 -36 16 -99 0 -105 -10 -115 -117
-115 -100 0 -113 13 -113 117 0 105 8 113 116 113 62 0 87 -4 98 -16z m300 -6
c11 -15 16 -45 16 -93 0 -105 -10 -115 -117 -115 -116 0 -123 7 -123 113 0
110 7 117 121 117 79 0 89 -2 103 -22z m-3 -277 c15 -18 19 -40 19 -97 0 -103
-12 -114 -122 -114 -110 0 -118 7 -118 114 0 45 4 86 8 92 17 26 50 34 121 31
63 -2 76 -6 92 -26z m-297 3 c12 -11 16 -36 16 -95 0 -107 -12 -119 -115 -119
-103 0 -115 12 -115 119 0 105 6 111 115 111 63 0 88 -4 99 -16z"/>
<path d="M2893 1572 c-15 -9 -10 -48 6 -44 6 1 11 -2 11 -6 0 -7 148 -8 253
-2 5 0 5 5 2 10 -4 6 -58 10 -130 10 -115 0 -124 1 -127 20 -2 12 -7 17 -15
12z"/>
<path d="M2945 1479 c-11 -17 27 -39 47 -28 13 7 18 6 18 -3 0 -8 3 -9 8 -3 9
13 64 17 57 5 -3 -6 1 -7 9 -4 28 11 7 22 -38 22 -24 0 -53 5 -64 11 -26 14
-29 14 -37 0z"/>
<path d="M3785 2820 c-3 -5 -1 -10 4 -10 6 0 11 5 11 10 0 6 -2 10 -4 10 -3 0
-8 -4 -11 -10z"/>
<path d="M2450 2755 c-1 -11 -4 -15 -7 -7 -2 6 -10 12 -16 12 -6 0 -4 -8 6
-17 19 -19 31 -13 24 14 -4 16 -5 16 -7 -2z"/>
<path d="M2483 2753 c9 -2 25 -2 35 0 9 3 1 5 -18 5 -19 0 -27 -2 -17 -5z"/>
<path d="M2483 2733 c9 -2 23 -2 30 0 6 3 -1 5 -18 5 -16 0 -22 -2 -12 -5z"/>
<path d="M2598 2733 c23 -2 61 -2 85 0 23 2 4 4 -43 4 -47 0 -66 -2 -42 -4z"/>
<path d="M2340 2700 c0 -5 5 -10 11 -10 5 0 7 5 4 10 -3 6 -8 10 -11 10 -2 0
-4 -4 -4 -10z"/>
<path d="M560 1620 c0 -5 5 -10 11 -10 5 0 7 5 4 10 -3 6 -8 10 -11 10 -2 0
-4 -4 -4 -10z"/>
<path d="M590 1599 c0 -5 -5 -7 -11 -3 -11 7 1 -21 29 -64 14 -21 15 -21 29
-5 13 16 13 16 3 -4 -8 -17 -8 -29 0 -43 17 -32 31 -23 30 18 -1 20 1 46 5 57
5 17 -1 24 -30 38 -41 20 -55 21 -55 6z"/>
<path d="M696 1528 c-15 -100 -16 -116 -2 -127 17 -15 23 -2 31 76 6 47 4 61
-8 72 -14 11 -17 8 -21 -21z"/>
<path d="M567 1519 c7 -7 15 -10 18 -7 3 3 -2 9 -12 12 -14 6 -15 5 -6 -5z"/>
<path d="M4193 1515 c0 -8 4 -12 9 -9 5 3 6 10 3 15 -9 13 -12 11 -12 -6z"/>
<path d="M740 1436 l-12 -84 52 -79 c68 -100 61 -95 97 -83 l30 11 -24 82
c-13 45 -27 103 -30 129 -3 26 -10 45 -14 42 -5 -3 -9 2 -9 11 0 9 -4 14 -9
10 -6 -3 -13 1 -18 8 -4 8 -18 19 -29 25 -21 11 -22 9 -34 -72z"/>
<path d="M574 1477 c-3 -8 -17 -11 -39 -9 -27 3 -35 0 -35 -11 0 -20 52 -57
79 -57 23 0 29 -25 9 -33 -8 -3 -3 -9 12 -15 22 -10 23 -11 4 -11 -11 -1 -21
-7 -21 -15 0 -10 27 -22 77 -35 42 -12 82 -21 89 -21 6 0 -5 21 -25 48 -20 26
-40 46 -46 44 -5 -1 -7 2 -3 8 7 11 -72 120 -87 120 -5 0 -11 -6 -14 -13z m26
-17 c0 -5 -5 -10 -11 -10 -5 0 -7 5 -4 10 3 6 8 10 11 10 2 0 4 -4 4 -10z"/>
<path d="M547 1336 c-4 -10 -1 -13 8 -9 8 3 12 9 9 14 -7 12 -11 11 -17 -5z"/>
<path d="M530 1284 c0 -1 8 -8 17 -15 9 -8 14 -9 10 -2 -4 6 -1 13 5 16 7 3 3
4 -9 4 -13 -1 -23 -2 -23 -3z"/>
<path d="M590 1273 c-1 -4 -3 -25 -6 -46 -4 -26 -2 -37 6 -35 6 2 21 -9 33
-25 l21 -27 -22 -22 c-12 -13 -22 -17 -22 -11 0 6 7 13 15 17 8 3 15 11 15 18
0 9 -3 9 -12 0 -17 -17 -24 -15 -24 7 0 15 3 17 13 9 8 -7 13 -7 13 0 0 5 -7
15 -15 22 -11 9 -15 9 -15 1 0 -7 -4 -10 -9 -6 -13 7 7 -63 26 -92 14 -21 17
-22 33 -8 9 8 21 12 25 8 5 -5 3 1 -5 11 -9 12 -10 17 -3 12 14 -8 163 59 163
73 0 4 -9 20 -20 34 -16 20 -38 30 -98 42 -42 9 -85 19 -94 22 -10 2 -18 1
-18 -4z m30 -53 c0 -5 -4 -10 -10 -10 -5 0 -10 5 -10 10 0 6 5 10 10 10 6 0
10 -4 10 -10z"/>
<path d="M2100 735 c-16 -19 4 -81 30 -95 25 -13 77 -13 85 1 13 19 -5 54 -42
82 -41 31 -55 33 -73 12z"/>
</g>
</svg>
